<svg xmlns="http://www.w3.org/2000/svg" viewBox="0 0 32 32" fill="none">
  <rect width="32" height="32" rx="8" fill="#7c3aed"/>
  <path d="M16 6C13.5 6 11.5 7.8 11.5 10C10 10 9 11 9 12.5C9 14 10 15 11.5 15H20.5C22 15 23 14 23 12.5C23 11 22 10 20.5 10C20.5 7.8 18.5 6 16 6Z" fill="white"/>
  <rect x="11" y="15" width="10" height="1.5" rx="0.5" fill="white"/>
  <rect x="12" y="17" width="8" height="7" rx="1" fill="white"/>
  <rect x="14" y="19" width="1.5" height="3" rx="0.5" fill="#7c3aed"/>
  <rect x="16.5" y="19" width="1.5" height="3" rx="0.5" fill="#7c3aed"/>
</svg>
